<svg width="12" height="12" viewBox="0 0 12 12" fill="none" xmlns="http://www.w3.org/2000/svg">
<path d="M11.5282 1.72154C11.5496 1.44623 11.3437 1.20569 11.0684 1.18428L6.58197 0.835392C6.30666 0.813982 6.06612 1.01981 6.04471 1.29512C6.0233 1.57043 6.22913 1.81097 6.50444 1.83238L10.4924 2.1425L10.1823 6.13046C10.1609 6.40577 10.3667 6.64631 10.642 6.66772C10.9173 6.68913 11.1579 6.4833 11.1793 6.20799L11.5282 1.72154ZM0.501515 10.2263C0.480106 10.5016 0.685934 10.7422 0.961245 10.7636L5.4477 11.1125C5.72301 11.1339 5.96355 10.928 5.98496 10.6527C6.00637 10.3774 5.80054 10.1369 5.52523 10.1155L1.53727 9.80535L1.84739 5.81739C1.8688 5.54208 1.66297 5.30154 1.38766 5.28013C1.11235 5.25872 0.87181 5.46455 0.850401 5.73986L0.501515 10.2263ZM10.7046 1.30287L0.674932 9.88518L1.32509 10.645L11.3547 2.06267L10.7046 1.30287Z" fill="#F6F6F6"/>
</svg>
