<svg width="21" height="21" viewBox="0 0 21 21" fill="none" xmlns="http://www.w3.org/2000/svg">
<circle cx="10.5" cy="10.5" r="10" stroke="#262FFF"/>
<path d="M13.4073 7.83687L7.67034 13.9499C7.59426 14.031 7.4891 14.0785 7.37798 14.082C7.26687 14.0856 7.1589 14.0448 7.07784 13.9687C6.99677 13.8927 6.94925 13.7875 6.94572 13.6764C6.9422 13.5653 6.98295 13.4573 7.05903 13.3762L12.796 7.26318C12.872 7.18211 12.9772 7.13459 13.0883 7.13106C13.1994 7.12754 13.3074 7.1683 13.3885 7.24437C13.4695 7.32045 13.5171 7.42561 13.5206 7.53673C13.5241 7.64784 13.4834 7.75581 13.4073 7.83687Z" fill="#262FFF"/>
<path d="M12.9829 7.67657L8.0693 7.83312C7.95804 7.83665 7.84994 7.79584 7.76877 7.71967C7.68761 7.6435 7.64002 7.5382 7.63649 7.42695C7.63296 7.31569 7.67377 7.20759 7.74994 7.12642C7.82611 7.04526 7.93141 6.99767 8.04267 6.99414L13.3752 6.82489C13.4303 6.82307 13.4852 6.83214 13.5368 6.85158C13.5884 6.87102 13.6356 6.90045 13.6758 6.93818C13.716 6.97591 13.7484 7.0212 13.7711 7.07146C13.7938 7.12171 13.8063 7.17595 13.808 7.23106L13.9772 12.5636C13.9808 12.6748 13.9399 12.7829 13.8638 12.8641C13.7876 12.9453 13.6823 12.9928 13.5711 12.9964C13.4598 12.9999 13.3517 12.9591 13.2705 12.8829C13.1894 12.8067 13.1418 12.7014 13.1382 12.5902L12.9829 7.67657Z" fill="#262FFF"/>
</svg>
