<svg width="24" height="20" viewBox="0 0 24 20" fill="none" xmlns="http://www.w3.org/2000/svg">
<path d="M11.0705 18.6666C8.65788 18.6666 7.45104 18.6666 6.44463 18.1239C5.43713 17.5801 4.79796 16.5856 3.51854 14.5933L2.78079 13.445C1.70504 11.7701 1.16663 10.9316 1.16663 9.99998C1.16663 9.06831 1.70504 8.22981 2.78079 6.55498L3.51746 5.40665C4.79688 3.41548 5.43604 2.4199 6.44354 1.87606C7.45104 1.33331 8.65788 1.33331 11.0705 1.33331H13.9272C18.1251 1.33331 20.2246 1.33331 21.529 2.60298C22.8333 3.87156 22.8333 5.91473 22.8333 9.99998C22.8333 14.0852 22.8333 16.1284 21.529 17.397C20.2246 18.6666 18.1251 18.6666 13.9283 18.6666H11.0705Z" stroke="#F6F6F6" stroke-width="1.5"/>
</svg>
