<svg width="24" height="24" viewBox="0 0 24 24" fill="none" xmlns="http://www.w3.org/2000/svg">
<path d="M4.616 5L6.116 8H9.116L7.616 5H9.616L11.116 8H14.116L12.616 5H14.616L16.116 8H19.116L17.616 5H19.385C19.845 5 20.2293 5.15433 20.538 5.463C20.8467 5.77167 21.0007 6.156 21 6.616V17.385C21 17.845 20.846 18.2293 20.538 18.538C20.23 18.8467 19.8457 19.0007 19.385 19H4.615C4.155 19 3.771 18.846 3.463 18.538C3.155 18.23 3.00067 17.8453 3 17.384V6.616C3 6.15533 3.15433 5.771 3.463 5.463C3.77167 5.155 4.15567 5.00067 4.615 5M4 9V17.385C4 17.5643 4.05767 17.7117 4.173 17.827C4.28833 17.9423 4.436 18 4.616 18H19.385C19.5643 18 19.7117 17.9423 19.827 17.827C19.9423 17.7117 20 17.5643 20 17.385V9H4Z" fill="#F6F6F6"/>
</svg>
