<svg width="22" height="22" viewBox="0 0 22 22" fill="none" xmlns="http://www.w3.org/2000/svg">
<g clip-path="url(#clip0_81_29)">
<path d="M11 1.83334C16.0628 1.83334 20.1667 5.93726 20.1667 11C20.1678 12.3763 19.8585 13.7351 19.2618 14.9752C18.665 16.2154 17.7962 17.305 16.72 18.1628L16.5009 18.3333H18.3333C18.567 18.3336 18.7917 18.4231 18.9616 18.5835C19.1315 18.7438 19.2337 18.9631 19.2474 19.1963C19.2611 19.4295 19.1852 19.6592 19.0353 19.8384C18.8853 20.0175 18.6726 20.1327 18.4406 20.1603L18.3333 20.1667H11C5.93726 20.1667 1.83334 16.0628 1.83334 11C1.83334 5.93726 5.93726 1.83334 11 1.83334ZM11 3.66668C9.05509 3.66668 7.18983 4.43929 5.81456 5.81456C4.43929 7.18983 3.66668 9.05509 3.66668 11C3.66668 12.9449 4.43929 14.8102 5.81456 16.1855C7.18983 17.5607 9.05509 18.3333 11 18.3333C12.9449 18.3333 14.8102 17.5607 16.1855 16.1855C17.5607 14.8102 18.3333 12.9449 18.3333 11C18.3333 9.05509 17.5607 7.18983 16.1855 5.81456C14.8102 4.43929 12.9449 3.66668 11 3.66668ZM11 12.8333C11.4862 12.8333 11.9526 13.0265 12.2964 13.3703C12.6402 13.7141 12.8333 14.1804 12.8333 14.6667C12.8333 15.1529 12.6402 15.6192 12.2964 15.963C11.9526 16.3069 11.4862 16.5 11 16.5C10.5138 16.5 10.0475 16.3069 9.70365 15.963C9.35983 15.6192 9.16668 15.1529 9.16668 14.6667C9.16668 14.1804 9.35983 13.7141 9.70365 13.3703C10.0475 13.0265 10.5138 12.8333 11 12.8333ZM7.33334 9.16668C7.81957 9.16668 8.28589 9.35983 8.62971 9.70365C8.97352 10.0475 9.16668 10.5138 9.16668 11C9.16668 11.4862 8.97352 11.9526 8.62971 12.2964C8.28589 12.6402 7.81957 12.8333 7.33334 12.8333C6.84711 12.8333 6.3808 12.6402 6.03698 12.2964C5.69316 11.9526 5.50001 11.4862 5.50001 11C5.50001 10.5138 5.69316 10.0475 6.03698 9.70365C6.3808 9.35983 6.84711 9.16668 7.33334 9.16668ZM14.6667 9.16668C15.1529 9.16668 15.6192 9.35983 15.963 9.70365C16.3069 10.0475 16.5 10.5138 16.5 11C16.5 11.4862 16.3069 11.9526 15.963 12.2964C15.6192 12.6402 15.1529 12.8333 14.6667 12.8333C14.1804 12.8333 13.7141 12.6402 13.3703 12.2964C13.0265 11.9526 12.8333 11.4862 12.8333 11C12.8333 10.5138 13.0265 10.0475 13.3703 9.70365C13.7141 9.35983 14.1804 9.16668 14.6667 9.16668ZM11 5.50001C11.4862 5.50001 11.9526 5.69316 12.2964 6.03698C12.6402 6.3808 12.8333 6.84711 12.8333 7.33334C12.8333 7.81957 12.6402 8.28589 12.2964 8.62971C11.9526 8.97352 11.4862 9.16668 11 9.16668C10.5138 9.16668 10.0475 8.97352 9.70365 8.62971C9.35983 8.28589 9.16668 7.81957 9.16668 7.33334C9.16668 6.84711 9.35983 6.3808 9.70365 6.03698C10.0475 5.69316 10.5138 5.50001 11 5.50001Z" fill="#F6F6F6"/>
</g>
<defs>
<clipPath id="clip0_81_29">
<rect width="22" height="22" fill="white"/>
</clipPath>
</defs>
</svg>
