<svg width="24" height="24" viewBox="0 0 24 24" fill="none" xmlns="http://www.w3.org/2000/svg">
<g clip-path="url(#clip0_81_7)">
<path d="M21 5.18V17C20.9998 17.8805 20.7091 18.7363 20.1729 19.4348C19.6368 20.1332 18.8852 20.6352 18.0346 20.863C17.1841 21.0907 16.2822 21.0315 15.4687 20.6944C14.6553 20.3573 13.9758 19.7613 13.5357 18.9987C13.0955 18.2361 12.9193 17.3496 13.0343 16.4767C13.1493 15.6037 13.5491 14.7931 14.1717 14.1705C14.7944 13.5479 15.605 13.1482 16.478 13.0333C17.351 12.9184 18.2375 13.0948 19 13.535V9.181L9 10.847V18C9 18.06 8.995 18.117 8.985 18.174C9.05679 18.943 8.87222 19.7141 8.46005 20.3672C8.04787 21.0204 7.43124 21.5189 6.70622 21.785C5.9812 22.0511 5.18852 22.07 4.45166 21.8386C3.71481 21.6073 3.07518 21.1387 2.63242 20.5059C2.18965 19.8731 1.96863 19.1116 2.00378 18.3401C2.03893 17.5685 2.32828 16.8303 2.82676 16.2404C3.32523 15.6505 4.00482 15.242 4.75966 15.0786C5.5145 14.9152 6.30219 15.006 7 15.337V6.847C6.99994 6.37356 7.16784 5.91546 7.47381 5.55418C7.77979 5.1929 8.20401 4.95188 8.671 4.874L18.671 3.208C18.9575 3.16023 19.2509 3.17541 19.5309 3.2525C19.8109 3.32959 20.0707 3.46674 20.2924 3.65441C20.514 3.84207 20.6921 4.07576 20.8143 4.33921C20.9365 4.60267 20.9999 4.88958 21 5.18ZM5.5 17C5.10217 17 4.72064 17.158 4.43934 17.4393C4.15803 17.7206 4 18.1022 4 18.5C4 18.8978 4.15803 19.2794 4.43934 19.5607C4.72064 19.842 5.10217 20 5.5 20C5.89782 20 6.27936 19.842 6.56066 19.5607C6.84196 19.2794 7 18.8978 7 18.5C7 18.1022 6.84196 17.7206 6.56066 17.4393C6.27936 17.158 5.89782 17 5.5 17ZM17 15C16.4696 15 15.9609 15.2107 15.5858 15.5858C15.2107 15.9609 15 16.4696 15 17C15 17.5304 15.2107 18.0391 15.5858 18.4142C15.9609 18.7893 16.4696 19 17 19C17.5304 19 18.0391 18.7893 18.4142 18.4142C18.7893 18.0391 19 17.5304 19 17C19 16.4696 18.7893 15.9609 18.4142 15.5858C18.0391 15.2107 17.5304 15 17 15ZM19 5.18L9 6.847V8.82L19 7.153V5.18Z" fill="#F6F6F6"/>
</g>
<defs>
<clipPath id="clip0_81_7">
<rect width="24" height="24" fill="white"/>
</clipPath>
</defs>
</svg>
