<svg width="24" height="24" viewBox="0 0 24 24" fill="none" xmlns="http://www.w3.org/2000/svg">
<g clip-path="url(#clip0_1_7)">
<path d="M21.6733 18.5533C21.0305 17.9802 20.4676 17.3232 20 16.6C19.4895 15.6017 19.1835 14.5115 19.1 13.3933V10.1C19.1044 8.34373 18.4674 6.6463 17.3085 5.32663C16.1496 4.00697 14.5488 3.15589 12.8067 2.93332V2.07332C12.8067 1.83728 12.7129 1.6109 12.546 1.44399C12.3791 1.27709 12.1527 1.18332 11.9167 1.18332C11.6806 1.18332 11.4543 1.27709 11.2873 1.44399C11.1204 1.6109 11.0267 1.83728 11.0267 2.07332V2.94665C9.30018 3.18527 7.71865 4.04149 6.57503 5.35672C5.4314 6.67196 4.80316 8.35708 4.80667 10.1V13.3933C4.72318 14.5115 4.41719 15.6017 3.90667 16.6C3.44726 17.3216 2.89347 17.9785 2.26001 18.5533C2.18889 18.6158 2.1319 18.6927 2.09282 18.7789C2.05374 18.8651 2.03346 18.9587 2.03334 19.0533V19.96C2.03334 20.1368 2.10358 20.3064 2.2286 20.4314C2.35363 20.5564 2.5232 20.6267 2.70001 20.6267H21.2333C21.4102 20.6267 21.5797 20.5564 21.7047 20.4314C21.8298 20.3064 21.9 20.1368 21.9 19.96V19.0533C21.8999 18.9587 21.8796 18.8651 21.8405 18.7789C21.8014 18.6927 21.7445 18.6158 21.6733 18.5533ZM3.42001 19.2933C4.04028 18.6941 4.58641 18.0227 5.04667 17.2933C5.68975 16.0876 6.06496 14.7573 6.14667 13.3933V10.1C6.12023 9.31868 6.25129 8.54004 6.53204 7.81043C6.81278 7.08083 7.23748 6.41518 7.78084 5.85312C8.3242 5.29106 8.9751 4.8441 9.69479 4.53884C10.4145 4.23357 11.1882 4.07626 11.97 4.07626C12.7518 4.07626 13.5255 4.23357 14.2452 4.53884C14.9649 4.8441 15.6158 5.29106 16.1592 5.85312C16.7025 6.41518 17.1272 7.08083 17.408 7.81043C17.6887 8.54004 17.8198 9.31868 17.7933 10.1V13.3933C17.8751 14.7573 18.2503 16.0876 18.8933 17.2933C19.3536 18.0227 19.8997 18.6941 20.52 19.2933H3.42001Z" fill="#969696"/>
<path d="M12 22.8533C12.42 22.8437 12.823 22.6858 13.1377 22.4076C13.4525 22.1295 13.6588 21.7489 13.72 21.3333H10.2133C10.2763 21.7602 10.4922 22.1497 10.8209 22.4293C11.1495 22.7089 11.5685 22.8596 12 22.8533Z" fill="#969696"/>
<circle cx="18" cy="6" r="3" fill="#2F4CE6"/>
</g>
<defs>
<clipPath id="clip0_1_7">
<rect width="24" height="24" fill="white"/>
</clipPath>
</defs>
</svg>
