<svg width="108" height="24" viewBox="0 0 108 24" fill="none" xmlns="http://www.w3.org/2000/svg">
<path d="M96.6 12L92 7.4L93.4 6L99.4 12L93.4 18L92 16.6L96.6 12Z" fill="#262FFF"/>
<path d="M75.6 12L71 7.4L72.4 6L78.4 12L72.4 18L71 16.6L75.6 12Z" fill="#565DFF"/>
<path d="M54.6 12L50 7.4L51.4 6L57.4 12L51.4 18L50 16.6L54.6 12Z" fill="#7E83F9"/>
<path d="M33.6 12L29 7.4L30.4 6L36.4 12L30.4 18L29 16.6L33.6 12Z" fill="#AAAEFF"/>
<path d="M12.6 12L8 7.4L9.4 6L15.4 12L9.4 18L8 16.6L12.6 12Z" fill="#B8B9DD"/>
</svg>
