<svg width="25" height="24" viewBox="0 0 25 24" fill="none" xmlns="http://www.w3.org/2000/svg">
<path d="M9.16279 10.8C9.4792 10.8 9.78265 10.6736 10.0064 10.4485C10.2301 10.2235 10.3558 9.91827 10.3558 9.60001C10.3558 9.28175 10.2301 8.97652 10.0064 8.75148C9.78265 8.52643 9.4792 8.40001 9.16279 8.40001C8.84639 8.40001 8.54293 8.52643 8.3192 8.75148C8.09546 8.97652 7.96977 9.28175 7.96977 9.60001C7.96977 9.91827 8.09546 10.2235 8.3192 10.4485C8.54293 10.6736 8.84639 10.8 9.16279 10.8ZM16.3209 9.60001C16.3209 9.91827 16.1952 10.2235 15.9715 10.4485C15.7478 10.6736 15.4443 10.8 15.1279 10.8C14.8115 10.8 14.5081 10.6736 14.2843 10.4485C14.0606 10.2235 13.9349 9.91827 13.9349 9.60001C13.9349 9.28175 14.0606 8.97652 14.2843 8.75148C14.5081 8.52643 14.8115 8.40001 15.1279 8.40001C15.4443 8.40001 15.7478 8.52643 15.9715 8.75148C16.1952 8.97652 16.3209 9.28175 16.3209 9.60001ZM3.79419 7.20001V16.8C3.79419 17.7548 4.17127 18.6705 4.84247 19.3456C5.51368 20.0207 6.42403 20.4 7.37326 20.4H13.7905C13.8227 20.4 13.8538 20.4 13.886 20.3976C13.9508 20.4031 14.0161 20.3979 14.0792 20.382C14.6082 20.3174 15.1004 20.0766 15.4775 19.698L19.7974 15.3516C20.1743 14.9725 20.4141 14.4774 20.4786 13.9452C20.4943 13.8817 20.4995 13.816 20.4941 13.7508C20.4965 13.7184 20.4965 13.6872 20.4965 13.6548V7.20001C20.4965 6.24523 20.1194 5.32955 19.4482 4.65442C18.777 3.97929 17.8667 3.60001 16.9174 3.60001H7.37326C6.42403 3.60001 5.51368 3.97929 4.84247 4.65442C4.17127 5.32955 3.79419 6.24523 3.79419 7.20001ZM19.3035 7.20001V13.2H16.6192C15.1756 13.2 13.9516 14.136 13.5126 15.438C13.0661 15.5487 12.6076 15.6031 12.1477 15.6C11.0561 15.6 10.2508 15.3264 9.72829 15.0636C9.52445 14.9625 9.33 14.8432 9.14728 14.7072C9.0925 14.6656 9.03956 14.6215 8.98861 14.5752L8.98503 14.5728C8.87271 14.4606 8.72068 14.3979 8.56238 14.3985C8.40409 14.399 8.2525 14.4628 8.14097 14.5758C8.02944 14.6888 7.96709 14.8417 7.96765 15.0009C7.96821 15.1601 8.03163 15.3126 8.14395 15.4248L8.14634 15.426L8.14872 15.4284L8.15469 15.4344L8.17259 15.4512C8.25577 15.5274 8.34257 15.5995 8.43266 15.6672C8.60685 15.7992 8.86096 15.9684 9.19501 16.1364C9.86429 16.4724 10.8509 16.8 12.1477 16.8C12.5772 16.8 12.9745 16.764 13.3384 16.7004V19.2H7.37326C6.74044 19.2 6.13354 18.9471 5.68607 18.4971C5.2386 18.047 4.98721 17.4365 4.98721 16.8V7.20001C4.98721 6.56349 5.2386 5.95304 5.68607 5.50295C6.13354 5.05286 6.74044 4.80001 7.37326 4.80001H16.9174C17.5503 4.80001 18.1572 5.05286 18.6046 5.50295C19.0521 5.95304 19.3035 6.56349 19.3035 7.20001ZM14.634 18.8484C14.6016 18.8812 14.5673 18.912 14.5314 18.9408V16.5C14.5314 15.3408 15.4667 14.4 16.6192 14.4H19.0458C19.0171 14.4361 18.9864 14.4705 18.9539 14.5032L14.634 18.8484Z" fill="#F6F6F6"/>
</svg>
